<?xml version="1.0" encoding="UTF-8"?>
<svg width="400px" height="61px" viewBox="0 0 400 61" version="1.1" xmlns="http://www.w3.org/2000/svg" xmlns:xlink="http://www.w3.org/1999/xlink">
    <title>logo_Horizontal</title>
    <defs>
        <linearGradient x1="22.020726%" y1="36.8887051%" x2="107.182735%" y2="97.0738893%" id="linearGradient-1">
            <stop stop-color="#36D0AC" offset="0%"></stop>
            <stop stop-color="#60F770" offset="98.0000019%"></stop>
            <stop stop-color="#60F770" offset="100%"></stop>
        </linearGradient>
        <linearGradient x1="3372.84328%" y1="12177.3008%" x2="3899.01557%" y2="14095.16%" id="linearGradient-2">
            <stop stop-color="#36D0AC" offset="0%"></stop>
            <stop stop-color="#60F770" offset="98%"></stop>
        </linearGradient>
        <linearGradient x1="121.772888%" y1="3689.57487%" x2="127.437249%" y2="3978.18145%" id="linearGradient-3">
            <stop stop-color="#36D0AC" offset="0%"></stop>
            <stop stop-color="#60F770" offset="98%"></stop>
        </linearGradient>
        <linearGradient x1="51.710974%" y1="21.2169839%" x2="86.0966629%" y2="123.216105%" id="linearGradient-4">
            <stop stop-color="#36D0AC" offset="0%"></stop>
            <stop stop-color="#60F770" offset="100%"></stop>
        </linearGradient>
        <linearGradient x1="16.709726%" y1="-10.1743087%" x2="62.0563969%" y2="92.3847361%" id="linearGradient-5">
            <stop stop-color="#F76B1C" offset="0%"></stop>
            <stop stop-color="#FBD16A" offset="100%"></stop>
        </linearGradient>
        <linearGradient x1="35.2247815%" y1="-24.152314%" x2="54.8526167%" y2="76.2571763%" id="linearGradient-6">
            <stop stop-color="#F76B1C" offset="0%"></stop>
            <stop stop-color="#F88E37" offset="37%"></stop>
            <stop stop-color="#FBD16A" offset="100%"></stop>
        </linearGradient>
        <linearGradient x1="24.7369438%" y1="2.86877563%" x2="56.375974%" y2="60.0913884%" id="linearGradient-7">
            <stop stop-color="#F76B1C" offset="0%"></stop>
            <stop stop-color="#FBD16A" offset="100%"></stop>
        </linearGradient>
        <linearGradient x1="5.34043206%" y1="-61.0971421%" x2="54.0306673%" y2="73.9106553%" id="linearGradient-8">
            <stop stop-color="#F76B1C" offset="0%"></stop>
            <stop stop-color="#FBD16A" offset="100%"></stop>
        </linearGradient>
        <linearGradient x1="50%" y1="37.352604%" x2="93.7044271%" y2="57.8265643%" id="linearGradient-9">
            <stop stop-color="#36D0AC" offset="0%"></stop>
            <stop stop-color="#60F770" offset="100%"></stop>
        </linearGradient>
    </defs>
    <g id="--------logo----------" stroke="none" stroke-width="1" fill="none" fill-rule="evenodd">
        <g id="logo_Horizontal备份" transform="translate(-50, -220)">
            <g id="Logo" transform="translate(50, 220)">
                <g id="Group-2122" transform="translate(0, 0)">
                    <path d="M42.9699386,30.6011031 C41.7517345,30.296585 40.6089723,29.7462469 39.612139,28.9840379 C38.6153058,28.2218289 37.7855433,27.2639124 37.1740289,26.1693721 C37.1324065,26.0888547 37.1120884,25.99906 37.1150021,25.9085086 C37.1179158,25.8179571 37.1439658,25.7296495 37.190679,25.6519623 C37.2373921,25.574275 37.303219,25.5097847 37.381919,25.4646068 C37.4606189,25.419429 37.5495793,25.3950625 37.6403647,25.3938184 L40.1719156,25.3938184 C38.3052994,23.9764884 36.7941148,22.1458982 35.7574864,20.0463515 C34.7208581,17.9468049 34.1871207,15.6356922 34.1983494,13.2951928 C34.2760004,10.8326352 34.9712074,8.42881088 36.2203787,6.30360744 C37.4695499,4.178404 39.2328075,2.39966252 41.3488606,1.13009137 C42.0672901,0.712201982 42.8086766,0.334910606 43.5695168,0 C38.4928882,0.315321046 33.67861,2.3601087 29.9316271,5.79247486 C26.1846442,9.22484102 23.7320916,13.836724 22.9840354,18.8570157 L21.4517815,18.8570157 C16.6321337,18.8569645 11.9528928,20.4764637 8.16840763,23.454431 C4.38392248,26.4323983 1.71471983,30.5953044 0.59110876,35.2720372 C-0.532502308,39.9487699 -0.0450482867,44.8668116 1.97488719,49.2333129 C3.99482266,53.5998142 7.42953653,57.1603382 11.7253095,59.3408788 C11.953864,55.7223253 13.5777835,52.3326574 16.2564581,49.8828473 C18.9351327,47.4330371 22.4604364,46.1134262 26.0929532,46.2007959 L34.5758611,46.4002241 C36.6660093,46.3947565 38.6801534,45.6174707 40.2300784,44.2181828 C41.7800033,42.8188949 42.7559929,40.8966556 42.9699386,38.8219641 C43.2364173,36.007815 43.5251025,33.1271888 43.7027549,31.6647175 C43.7223771,31.4302779 43.660127,31.1962821 43.5265597,31.0024214 C43.3929923,30.8085608 43.1963316,30.6667722 42.9699386,30.6011031 L42.9699386,30.6011031 Z M67.1306798,20.3416457 C66.8342228,16.7071488 65.643451,13.2018265 63.6639796,10.136593 C61.6845082,7.07135948 58.9775212,4.54095941 55.7831255,2.76983184 C53.7414726,1.79928905 51.4858471,1.36326441 49.2286769,1.50282177 C46.9715068,1.64237913 44.7870776,2.35292562 42.8811145,3.56754344 C41.1761486,4.57719389 39.7509359,5.99582073 38.7348899,7.69460677 C37.7188438,9.39339282 37.1441484,11.3185247 37.0629936,13.2951928 C37.0505291,15.3203189 37.5467853,17.3162843 38.5064235,19.1007601 C38.4954032,18.9680356 38.4954032,18.8346282 38.5064235,18.7019036 C38.5064235,16.1572316 39.5194737,13.7167839 41.3227187,11.9174291 C43.1259637,10.1180743 45.5716908,9.10720738 48.1218644,9.10720738 L49.2766024,9.10720738 L48.1218644,11.9878319 C47.2382536,11.9703724 46.3598472,12.1267485 45.5368014,12.4480318 C44.7137556,12.769315 43.9621856,13.249214 43.325006,13.8603275 C42.0381638,15.094527 41.2953739,16.7882702 41.2600366,18.5689529 C41.2246993,20.3496356 41.8997106,22.0713926 43.1365784,23.3554587 C44.3734463,24.6395247 46.0708513,25.3807165 47.8553838,25.4159775 L56.3827037,25.4159775 C56.6353481,25.426155 56.8796421,25.5090616 57.0861168,25.6546968 C57.2925914,25.8003319 57.4524259,26.0024739 57.5463321,26.2367329 C57.6402383,26.470992 57.6642074,26.7273591 57.6153464,26.9749082 C57.5664855,27.2224573 57.4468805,27.4506115 57.2709653,27.631843 L54.1842546,30.3573565 C53.5726158,30.9028586 53.1168019,31.6003808 52.8632453,32.3788718 C52.6096887,33.1573629 52.5674506,33.9890052 52.740829,34.7890875 C53.3848193,37.71403 54.3396996,42.3230294 54.6950045,44.4502602 C55.668705,49.5313548 54.6256151,54.7911782 51.7859462,59.1192914 C54.3683106,60.2940671 57.1632366,60.9322125 60.0006178,60.9948872 C62.837999,61.0575619 65.658487,60.5434521 68.2904199,59.4838547 C70.9223529,58.4242572 73.3106874,56.8413322 75.310048,54.8314197 C77.3094085,52.8215071 78.8779871,50.426648 79.9203085,47.7925997 C80.9626299,45.1585514 81.4568939,42.3404096 81.3730227,39.5096927 C81.2891516,36.6789757 80.6288919,33.8948902 79.4324391,31.3268885 C78.2359864,28.7588869 76.528365,26.4606792 74.4134974,24.5721416 C72.2986298,22.683604 69.8207504,21.2442374 67.1306798,20.3416457 L67.1306798,20.3416457 Z" id="Vector" fill="url(#linearGradient-1)" fill-rule="nonzero"></path>
                    <g id="编组" transform="translate(98.5782, 11.4375)">
                        <g transform="translate(0, 0.0774)" fill-rule="nonzero">
                            <path d="M1.45068843,37.8211051 C1.25843094,37.8211051 1.06617346,37.7824275 0.890395186,37.7105978 C0.714616915,37.6332428 0.555317857,37.5227355 0.423484154,37.3846014 C0.28615738,37.2519928 0.17629596,37.0917572 0.104886038,36.9149457 C0.0334761153,36.7381341 -0.00497538147,36.5502717 0.000517689499,36.3568841 L0.000517689499,1.45869565 C0.000517689499,1.27083333 0.0334761153,1.08297101 0.104886038,0.90615942 C0.17629596,0.729347826 0.28615738,0.574637681 0.423484154,0.447554348 C0.555317857,0.30942029 0.714616915,0.193387681 0.890395186,0.121557971 C1.06617346,0.0442028986 1.25843094,0.00552536232 1.45068843,0.0110507246 L17.2487605,0.0110507246 C19.2152799,-0.0497282609 21.1763063,0.30942029 22.9945128,1.06086957 C24.3897528,1.67418478 25.6366799,2.57481884 26.6583911,3.70751812 C27.5482686,4.71865942 28.2294094,5.89003623 28.6743481,7.16086957 C29.0588631,8.27699275 29.2621067,9.44836957 29.278586,10.6307971 C29.2895721,11.6087862 29.1522453,12.58125 28.8556195,13.5150362 C28.6029382,14.2720109 28.2513817,14.9958333 27.811936,15.6644022 C27.4493933,16.2003623 27.0319199,16.6976449 26.5650089,17.1507246 C26.2683831,17.4546196 25.9333057,17.7253623 25.5762561,17.9574275 C26.7847317,18.8193841 27.8229221,19.9023551 28.6358966,21.151087 C29.6191564,22.7202899 30.1025466,24.5547101 30.0256436,26.4057065 C30.0146575,29.2512681 28.9654809,31.9973732 27.0758645,34.1191123 C26.0486602,35.2352355 24.8017331,36.1248188 23.4119862,36.7270833 C21.8299817,37.4177536 20.1216366,37.7658514 18.3968124,37.7382246 L1.44519535,37.8321558 L1.45068843,37.8211051 Z M22.1211145,10.9844203 C22.1705521,10.4042572 22.0771699,9.81856884 21.8574471,9.27708333 C21.6322312,8.73559783 21.2861677,8.26041667 20.8412289,7.87916667 C19.6327533,7.08351449 18.1990618,6.71331522 16.7598772,6.83487319 L7.25686444,6.83487319 L7.25686444,15.1339674 L16.7598772,15.1339674 C18.2265272,15.2665761 19.6931771,14.8908514 20.9181319,14.0675725 C21.3465915,13.6863225 21.6816688,13.2056159 21.8904055,12.6696558 C22.0991422,12.1336957 22.1815383,11.5535326 22.1266076,10.9844203 L22.1211145,10.9844203 Z M7.25686444,31.080163 L17.2542536,31.080163 C18.8087927,31.2127717 20.3523456,30.7652174 21.5937797,29.8148551 C22.0332253,29.3783514 22.3792888,28.8644928 22.6154909,28.2898551 C22.8516929,27.7207428 22.9725405,27.1074275 22.9725405,26.488587 C22.9725405,25.8697464 22.8516929,25.2564312 22.6154909,24.6873188 C22.3792888,24.1182065 22.0332253,23.5988225 21.5937797,23.1623188 C20.379811,22.2064312 18.8472442,21.7423007 17.3091843,21.8583333 L7.38320507,21.8583333 L7.25686444,31.080163 L7.25686444,31.080163 Z" id="_形状-2" fill="url(#linearGradient-2)"></path>
                            <path d="M38.2872223,37.8211051 C38.0949649,37.8211051 37.9082004,37.7824275 37.7269291,37.7050725 C37.5511508,37.6277174 37.3918518,37.5172101 37.2600181,37.3790761 C37.1281844,37.2464674 37.0183229,37.0807065 36.946913,36.9038949 C36.8755031,36.7270833 36.8370516,36.539221 36.8370516,36.3458333 L36.8370516,1.44764493 C36.8370516,1.25978261 36.87001,1.07192029 36.946913,0.900634058 C37.0183229,0.729347826 37.1281844,0.569112319 37.2600181,0.442028986 C37.3918518,0.303894928 37.5511508,0.193387681 37.7269291,0.116032609 C37.9027074,0.0386775362 38.0949649,0 38.2872223,0 L42.6432276,0 C42.8354851,0 43.0222495,0.0386775362 43.2035209,0.116032609 C43.3792991,0.193387681 43.5385982,0.303894928 43.6704319,0.442028986 C43.8022656,0.574637681 43.912127,0.729347826 43.9835369,0.900634058 C44.0549469,1.07744565 44.0933984,1.25978261 44.0933984,1.44764493 L44.0933984,36.3458333 C44.0933984,36.5336957 44.0549469,36.7270833 43.9835369,36.9038949 C43.912127,37.0807065 43.8022656,37.240942 43.6704319,37.3790761 C43.5385982,37.5172101 43.3792991,37.6277174 43.2035209,37.7050725 C43.0277426,37.7824275 42.8354851,37.8211051 42.6432276,37.8211051 L38.2872223,37.8211051 L38.2872223,37.8211051 Z" id="_路径" fill="url(#linearGradient-3)"></path>
                            <path d="M78.3976266,0.0994565217 C78.7821415,0.0994565217 79.1446842,0.259692029 79.4138447,0.530434783 C79.6830052,0.801177536 79.8368111,1.16585145 79.8423042,1.55262681 L79.8423042,5.39275362 C79.8423042,5.77400362 79.6830052,6.1442029 79.4138447,6.41494565 C79.1446842,6.68568841 78.7766484,6.84039855 78.3976266,6.84592391 L68.7298216,6.84592391 L68.7298216,36.3624094 C68.7298216,36.5557971 68.6913702,36.7436594 68.6199602,36.920471 C68.5485503,37.0972826 68.444182,37.2575181 68.3068552,37.3956522 C68.1750215,37.5337862 68.0157224,37.6442935 67.8399442,37.7216486 C67.6641659,37.7990036 67.4719084,37.8376812 67.2796509,37.8376812 L63.0115348,37.8376812 C62.8192773,37.8376812 62.6325129,37.7990036 62.4512415,37.7216486 C62.2699702,37.6442935 62.1161642,37.5337862 61.9843305,37.3956522 C61.8524968,37.2630435 61.7426354,37.0972826 61.6712255,36.920471 C61.5998155,36.7436594 61.561364,36.5557971 61.561364,36.3624094 L61.561364,6.84592391 L51.8935591,6.84592391 C51.7013016,6.84592391 51.5090442,6.80724638 51.3332659,6.73541667 C51.1574876,6.65806159 50.9981886,6.54755435 50.8663549,6.40942029 C50.7290281,6.28233696 50.6191667,6.12210145 50.5477567,5.95081522 C50.4763468,5.77400362 50.4378953,5.5861413 50.4433884,5.39827899 L50.4433884,1.55815217 C50.4433884,1.37028986 50.4763468,1.18242754 50.5477567,1.00561594 C50.6191667,0.828804348 50.7290281,0.674094203 50.8663549,0.54701087 C50.9981886,0.408876812 51.1574876,0.292844203 51.3332659,0.221014493 C51.5090442,0.149184783 51.7013016,0.104981884 51.8935591,0.110507246 L78.3866404,0.110507246 L78.3976266,0.0994565217 Z" id="_路径-2" fill="url(#linearGradient-4)"></path>
                            <path d="M115.635155,8.81847826 C114.981479,7.06141304 113.954275,5.46458333 112.630445,4.13297101 C111.235205,2.79583333 109.565311,1.7736413 107.741612,1.13822464 C105.516918,0.397826087 103.182363,0.0442028986 100.842315,0.0884057971 L87.5710551,0.0884057971 C87.3787976,0.0884057971 87.1920332,0.127083333 87.0107618,0.204438406 C86.8294905,0.281793478 86.6756845,0.392300725 86.5438508,0.530434783 C86.4120171,0.663043478 86.3021557,0.817753623 86.2307458,0.994565217 C86.1593358,1.16585145 86.1208843,1.35371377 86.1208843,1.54157609 L86.1208843,36.4397645 C86.1208843,36.6276268 86.1593358,36.8210145 86.2307458,36.9978261 C86.3021557,37.1746377 86.406524,37.3348732 86.5438508,37.4730072 C86.6756845,37.6111413 86.8349836,37.7216486 87.0107618,37.7990036 C87.1865401,37.8763587 87.3787976,37.9150362 87.5710551,37.9150362 L101.100489,37.9150362 C103.396593,37.9537138 105.68171,37.5945652 107.856966,36.8486413 C109.6532,36.2242754 111.290136,35.2076087 112.652417,33.8759964 C113.965261,32.5388587 114.981479,30.9365036 115.635155,29.173913 C116.36024,27.2068841 116.7887,25.1348732 116.898561,23.0407609 C117.046874,20.3830616 117.046874,17.7253623 116.898561,15.067663 C116.794193,12.9348732 116.371226,10.8297101 115.635155,8.82400362 L115.635155,8.81847826 Z M109.647707,22.9413043 C109.587284,24.0463768 109.356575,25.1348732 108.97206,26.1736413 C108.625996,27.1461051 108.071196,28.030163 107.340617,28.7650362 C106.571588,29.5109601 105.654245,30.0911232 104.649013,30.4557971 C103.429551,30.8978261 102.138679,31.1133152 100.842315,31.080163 L93.371738,31.080163 L93.371738,6.83487319 L100.567661,6.83487319 C101.918956,6.80724638 103.259266,7.01168478 104.539151,7.44266304 C105.571849,7.81286232 106.516657,8.40407609 107.302166,9.17210145 C108.038237,9.90144928 108.604024,10.7855072 108.966566,11.7634964 C109.356575,12.7912138 109.587284,13.8797101 109.642214,14.9792572 C109.790527,17.6369565 109.790527,20.2946558 109.642214,22.9523551 L109.647707,22.9413043 Z" id="_形状-3" fill="url(#linearGradient-5)"></path>
                            <path d="M148.95063,31.080163 L133.185516,31.080163 C132.652689,31.080163 132.141833,30.8591486 131.768304,30.4834239 C131.389282,30.1076993 131.180545,29.5938406 131.175052,29.0578804 L131.175052,22.1346014 L147.34116,22.1346014 C147.533418,22.1346014 147.725675,22.0959239 147.901454,22.0240942 C148.077232,21.9467391 148.236531,21.8362319 148.368365,21.6980978 C148.505691,21.5710145 148.615553,21.410779 148.686963,21.2394928 C148.758373,21.0626812 148.796824,20.8803442 148.791331,20.6869565 L148.791331,16.8302536 C148.791331,16.6423913 148.763866,16.454529 148.686963,16.2777174 C148.615553,16.1009058 148.505691,15.9461957 148.368365,15.8191123 C148.236531,15.6809783 148.077232,15.5649457 147.901454,15.4931159 C147.725675,15.4157609 147.533418,15.3770833 147.34116,15.3826087 L131.175052,15.3826087 L131.175052,9.08369565 C131.175052,8.48695652 131.411254,7.9178442 131.828728,7.49791667 C132.246201,7.07798913 132.817481,6.84039855 133.410732,6.84039855 L148.533157,6.84039855 C148.912179,6.82934783 149.274721,6.66911232 149.543882,6.39836957 C149.813042,6.12762681 149.966848,5.76847826 149.983327,5.38722826 L149.983327,1.54710145 C149.966848,1.16585145 149.813042,0.806702899 149.543882,0.535960145 C149.274721,0.265217391 148.912179,0.110507246 148.533157,0.0939311594 L130.757579,0.0939311594 C128.939373,0.0939311594 127.198069,0.817753623 125.907197,2.10516304 C124.621819,3.39257246 123.896733,5.13858696 123.89124,6.96195652 L123.89124,31.0249094 C123.89124,32.8261775 124.60534,34.5556159 125.874239,35.8319746 C127.143138,37.1083333 128.867963,37.8211051 130.664197,37.8211051 L148.972602,37.8211051 C149.16486,37.8211051 149.357117,37.7824275 149.532896,37.7105978 C149.708674,37.6332428 149.867973,37.5227355 149.999807,37.3846014 C150.137133,37.2519928 150.246995,37.0917572 150.318405,36.9149457 C150.389815,36.7381341 150.428266,36.5447464 150.422773,36.3568841 L150.422773,32.5388587 C150.422773,32.345471 150.389815,32.1576087 150.318405,31.9807971 C150.246995,31.8039855 150.137133,31.64375 149.999807,31.5111413 C149.86248,31.3730072 149.697688,31.2680254 149.521909,31.1961957 C149.340638,31.1243659 149.148381,31.0856884 148.956123,31.0912138 L148.95063,31.080163 Z" id="_路径-3" fill="url(#linearGradient-6)"></path>
                            <path d="M181.887084,31.080163 L166.12197,31.080163 C165.589142,31.080163 165.078286,30.8646739 164.699265,30.4889493 C164.320243,30.1076993 164.111506,29.5938406 164.111506,29.0578804 L164.111506,22.1346014 L180.277614,22.1346014 C180.656636,22.1346014 181.024671,21.9743659 181.293832,21.7036232 C181.562992,21.4328804 181.716798,21.0682065 181.722291,20.6814312 L181.722291,16.8247283 C181.722291,16.4434783 181.562992,16.073279 181.293832,15.8025362 C181.024671,15.5317935 180.656636,15.3770833 180.277614,15.371558 L164.111506,15.371558 L164.111506,9.07264493 C164.111506,8.77980072 164.166437,8.48695652 164.281791,8.21621377 C164.391653,7.94547101 164.556445,7.69682971 164.765181,7.48686594 C164.973918,7.27690217 165.221106,7.1111413 165.490267,7.00063406 C165.759427,6.89012681 166.05056,6.82934783 166.347186,6.82934783 L181.46961,6.82934783 C181.848632,6.8182971 182.211175,6.65806159 182.480335,6.38731884 C182.749496,6.11657609 182.903302,5.75742754 182.919781,5.37617754 L182.919781,1.53605072 C182.908795,1.15480072 182.749496,0.795652174 182.480335,0.52490942 C182.211175,0.254166667 181.854125,0.0994565217 181.46961,0.0828804348 L163.913755,0.0828804348 C162.046111,0.0828804348 160.25537,0.83432971 158.937033,2.16041667 C157.618696,3.48650362 156.871638,5.28224638 156.866145,7.1553442 L156.866145,30.8094203 C156.866145,32.665942 157.60771,34.4395833 158.915061,35.7546196 C160.222412,37.0696558 161.991181,37.804529 163.842345,37.8100543 L181.892577,37.8100543 C182.084834,37.8100543 182.277092,37.7713768 182.45287,37.6995471 C182.628648,37.622192 182.787947,37.5116848 182.919781,37.3735507 C183.057108,37.240942 183.161476,37.0751812 183.232886,36.9038949 C183.304296,36.7270833 183.342747,36.539221 183.342747,36.3458333 L183.342747,32.527808 C183.342747,32.1410326 183.188941,31.7708333 182.919781,31.5000906 C182.787947,31.3674819 182.623155,31.2569746 182.447377,31.1851449 C182.271599,31.1133152 182.084834,31.0746377 181.892577,31.0746377 L181.887084,31.080163 Z" id="_路径-4" fill="url(#linearGradient-7)"></path>
                            <path d="M219.525606,36.0419384 L212.10996,22.7258152 C214.257751,21.9688406 216.108916,20.5488225 217.399787,18.6646739 C218.652208,16.653442 219.289404,14.3162138 219.22898,11.940308 C219.316869,10.3269022 219.053202,8.71349638 218.448964,7.21612319 C217.850219,5.71875 216.927383,4.37056159 215.746373,3.27101449 C212.840539,1.00561594 209.204126,-0.104981884 205.529261,0.149184783 L191.670243,0.149184783 C191.291221,0.160235507 190.928678,0.320471014 190.665011,0.591213768 C190.395851,0.861956522 190.242045,1.22110507 190.225565,1.60235507 L190.225565,36.5005435 C190.225565,36.6939312 190.264017,36.8817935 190.335427,37.0586051 C190.41233,37.2354167 190.522191,37.3956522 190.665011,37.5282609 C190.791352,37.6663949 190.945158,37.7824275 191.120936,37.8542572 C191.296714,37.9316123 191.483479,37.9702899 191.670243,37.9702899 L196.026248,37.9702899 C196.218506,37.9702899 196.40527,37.9316123 196.586542,37.8542572 C196.767813,37.7769022 196.921619,37.6663949 197.053453,37.5282609 C197.185286,37.3956522 197.295148,37.2298913 197.366558,37.0586051 C197.437968,36.8817935 197.476419,36.6939312 197.476419,36.5005435 L197.476419,23.8087862 L204.617411,23.8087862 L211.665021,36.3513587 C211.846293,36.7049819 212.087988,37.0309783 212.379121,37.3072464 C212.824059,37.6774457 213.395339,37.8597826 213.972111,37.8211051 L218.53136,37.8211051 C218.690659,37.8211051 218.844465,37.7879529 218.992778,37.7271739 C219.141091,37.6663949 219.267432,37.5724638 219.377293,37.4564312 C219.487154,37.3514493 219.575044,37.2188406 219.635467,37.0807065 C219.695891,36.9370471 219.723356,36.7878623 219.723356,36.6331522 C219.706877,36.4231884 219.635467,36.2242754 219.520113,36.0474638 L219.525606,36.0419384 Z M210.115975,15.9848732 C208.616367,16.7805254 206.924501,17.15625 205.227142,17.0678442 L197.448954,17.0678442 L197.448954,6.84039855 L205.227142,6.84039855 C206.913515,6.75751812 208.599888,7.10561594 210.115975,7.85153986 C210.764158,8.28804348 211.280506,8.89583333 211.604598,9.61413043 C211.928689,10.3269022 212.049536,11.117029 211.950661,11.8961051 C212.049536,12.6807065 211.928689,13.4818841 211.610091,14.2001812 C211.285999,14.9240036 210.769651,15.5428442 210.121468,15.9903986 L210.115975,15.9848732 Z" id="_形状-4" fill="url(#linearGradient-8)"></path>
                        </g>
                        <g transform="translate(225.6174, 0)">
                            <path d="M56.8514917,0 C67.3188825,-1.92282851e-15 75.8043794,8.48549686 75.8043794,18.9528877 L75.8043794,19.1721123 C75.8043794,29.6395031 67.3188825,38.125 56.8514917,38.125 L18.9528877,38.125 C8.48549686,38.125 1.28188567e-15,29.6395031 0,19.1721123 L0,18.9528877 C-1.28188567e-15,8.48549686 8.48549686,1.92282851e-15 18.9528877,0 L56.8514917,0 Z M35.7708781,5.2048913 L29.2945475,5.2048913 C28.794678,5.2048913 28.3552323,5.51431159 28.1794541,5.98396739 L18.7478512,31.4061594 C18.4567185,32.1852355 19.0334909,33.0195652 19.8629446,33.0195652 L23.5982329,33.0195652 C24.1035954,33.0195652 24.5540272,32.6990942 24.7188194,32.2183877 L26.8336517,26.123913 L38.0724749,26.123913 L40.1488557,32.2128623 C40.3136478,32.6935688 40.7640797,33.0195652 41.2749353,33.0195652 L45.1310711,33.0195652 C45.9605248,33.0195652 46.5318042,32.1852355 46.2461645,31.4061594 L36.8859716,5.98396739 C36.7156864,5.51431159 36.2707476,5.2048913 35.7708781,5.2048913 Z M56.0512962,5.11096014 L52.8488358,5.11096014 C52.7060159,5.11096014 52.5686892,5.13858696 52.4368555,5.19384058 C52.3050218,5.2490942 52.1896673,5.32644928 52.090792,5.43143116 C51.9919167,5.52536232 51.9150137,5.64139493 51.860083,5.76847826 C51.8106454,5.89556159 51.78318,6.03369565 51.78318,6.17182971 L51.78318,31.842663 C51.78318,31.9807971 51.8106454,32.1189312 51.8655761,32.2515399 C51.9205068,32.3841486 51.9974098,32.5001812 52.0962851,32.5996377 C52.1951603,32.6990942 52.3105148,32.7819746 52.4423485,32.8372283 C52.5741822,32.8924819 52.711509,32.9201087 52.8543289,32.9201087 L56.0458031,32.9201087 C56.1886229,32.9201087 56.3259497,32.8924819 56.4577834,32.8372283 C56.5896171,32.7819746 56.7049716,32.6990942 56.8038469,32.5996377 C56.9027222,32.5001812 56.9796252,32.3841486 57.0345559,32.2515399 C57.0894866,32.1189312 57.1169519,31.9807971 57.1169519,31.842663 L57.1169519,6.17182971 C57.122445,6.03369565 57.0949796,5.89556159 57.0400489,5.76847826 C56.9851182,5.64139493 56.9082152,5.52536232 56.80934,5.43143116 C56.7104647,5.33197464 56.5951102,5.2490942 56.4632765,5.19384058 C56.3314428,5.13858696 56.194116,5.11096014 56.0512962,5.11096014 Z M32.7332099,10.5313406 L36.3201852,21.0737319 L28.5914344,21.0737319 L32.2553127,10.5313406 L32.7332099,10.5313406 Z" id="形状结合" fill="url(#linearGradient-9)" fill-rule="nonzero"></path>
                            <g transform="translate(18.6714, 5.111)"></g>
                        </g>
                    </g>
                </g>
            </g>
        </g>
    </g>
</svg>